<?xml version="1.0" encoding="utf-8"?>
<!-- Generator: Adobe Illustrator 27.3.1, SVG Export Plug-In . SVG Version: 6.00 Build 0)  -->
<svg version="1.1" id="Layer_1" xmlns="http://www.w3.org/2000/svg" xmlns:xlink="http://www.w3.org/1999/xlink" x="0px" y="0px"
	 viewBox="0 0 274 719.9" style="enable-background:new 0 0 274 719.9;" xml:space="preserve">
<style type="text/css">
	.st0{fill:#48C5E1;}
	.st1{fill:#0F172A;}
</style>
<g>
	<rect x="211.7" y="63.3" class="st0" width="39.3" height="579.8"/>
	<g>
		<path class="st1" d="M224.9,87.8c-0.7-0.4-1.3-1-1.7-1.8s-0.7-1.8-0.7-3s0.2-2.2,0.6-3.1c0.4-0.9,1-1.6,1.7-2.2
			c0.7-0.5,1.6-0.8,2.5-0.9v2.4c-0.5,0-1,0.2-1.5,0.5s-0.9,0.7-1.2,1.2s-0.5,1.2-0.5,2c0,1,0.3,1.8,0.8,2.3s1.2,0.8,2,0.8
			c0.7,0,1.3-0.2,1.7-0.6s0.8-0.8,1.1-1.4c0.3-0.5,0.5-1.3,0.8-2.2c0.4-1.1,0.7-2,1-2.7s0.8-1.2,1.5-1.7c0.6-0.5,1.5-0.7,2.6-0.7
			c0.9,0,1.7,0.2,2.4,0.7c0.7,0.4,1.2,1.1,1.6,1.9c0.4,0.8,0.6,1.8,0.6,2.9c0,1.7-0.4,3.1-1.3,4.1c-0.8,1-1.9,1.6-3.2,1.8v-2.4
			c0.7-0.1,1.3-0.5,1.8-1.1s0.8-1.4,0.8-2.4c0-0.9-0.2-1.6-0.7-2.2c-0.5-0.5-1.1-0.8-2-0.8c-0.7,0-1.2,0.2-1.7,0.5
			c-0.4,0.4-0.8,0.8-1,1.3s-0.5,1.3-0.8,2.2c-0.4,1.1-0.7,2-1,2.7s-0.8,1.3-1.5,1.8s-1.6,0.7-2.7,0.7
			C226.4,88.4,225.6,88.2,224.9,87.8z"/>
		<path class="st1" d="M226.7,101.8V94l-4.1-1.5v-2.4l17.2,6.5v2.6l-17.2,6.5v-2.4L226.7,101.8z M228.5,101.1l8.9-3.2l-8.9-3.2
			V101.1z"/>
		<path class="st1" d="M222.6,117.3l7.2-4.6v-2.5h-7.2V108h17.6v5.8c0,2-0.5,3.5-1.4,4.5c-1,1-2.2,1.5-3.8,1.5
			c-1.4,0-2.6-0.4-3.5-1.2c-0.9-0.8-1.4-2-1.6-3.5l-7.2,4.8v-2.6H222.6z M231.5,110.2v3.3c0,2.6,1.1,3.9,3.4,3.9
			c2.3,0,3.4-1.3,3.4-3.9v-3.3H231.5z"/>
		<path class="st1" d="M240.2,124.8h-17.6v-2.3h17.6V124.8z"/>
		<path class="st1" d="M222.6,137.7l7.2-4.6v-2.5h-7.2v-2.3h17.6v5.8c0,2-0.5,3.5-1.4,4.5s-2.2,1.5-3.8,1.5c-1.4,0-2.6-0.4-3.5-1.2
			s-1.4-2-1.6-3.5l-7.2,4.8v-2.5H222.6z M231.5,130.7v3.3c0,2.6,1.1,3.9,3.4,3.9c2.3,0,3.4-1.3,3.4-3.9v-3.3H231.5z"/>
		<path class="st1" d="M226.7,159.4v-7.7l-4.1-1.5v-2.4l17.2,6.5v2.6l-17.2,6.5V161L226.7,159.4z M228.5,158.7l8.9-3.2l-8.9-3.2
			V158.7z"/>
		<path class="st1" d="M240.2,167.7h-10.5c-1.7,0-3,0.4-3.8,1.1c-0.8,0.8-1.2,1.8-1.2,3.2c0,1.3,0.4,2.4,1.2,3.1
			c0.8,0.7,2.1,1.1,3.8,1.1h10.5v2.3h-10.5c-2.4,0-4.2-0.6-5.4-1.8s-1.8-2.8-1.8-4.8s0.6-3.6,1.8-4.7c1.2-1.2,3-1.8,5.4-1.8h10.5
			V167.7z"/>
		<path class="st1" d="M222.6,191.3l7.2-4.6v-2.5h-7.2V182h17.6v5.8c0,2-0.5,3.5-1.4,4.5s-2.2,1.5-3.8,1.5c-1.4,0-2.6-0.4-3.5-1.2
			s-1.4-2-1.6-3.5l-7.2,4.8v-2.6H222.6z M231.5,184.3v3.3c0,2.6,1.1,3.9,3.4,3.9c2.3,0,3.4-1.3,3.4-3.9v-3.3H231.5z"/>
		<path class="st1" d="M222.6,212l7.2-4.6V205h-7.2v-2.3h17.6v5.8c0,2-0.5,3.5-1.4,4.5s-2.2,1.5-3.8,1.5c-1.4,0-2.6-0.4-3.5-1.2
			s-1.4-2-1.6-3.5l-7.2,4.8V212H222.6z M231.5,205v3.3c0,2.6,1.1,3.9,3.4,3.9c2.3,0,3.4-1.3,3.4-3.9V205H231.5z"/>
		<path class="st1" d="M239.3,229.7c-0.8,1.3-1.8,2.3-3.2,3.1c-1.4,0.7-2.9,1.1-4.6,1.1c-1.7,0-3.3-0.4-4.6-1.1
			c-1.4-0.7-2.4-1.8-3.2-3.1s-1.1-2.8-1.1-4.4c0-1.6,0.4-3.1,1.1-4.4c0.8-1.3,1.8-2.4,3.2-3.1c1.4-0.7,2.9-1.1,4.6-1.1
			c1.7,0,3.3,0.4,4.6,1.1c1.4,0.7,2.4,1.8,3.2,3.1s1.1,2.8,1.1,4.4C240.4,226.9,240,228.4,239.3,229.7z M237.5,222
			c-0.6-1-1.4-1.7-2.4-2.2s-2.3-0.8-3.6-0.8c-1.4,0-2.6,0.3-3.6,0.8s-1.8,1.3-2.4,2.2c-0.6,1-0.8,2-0.8,3.2s0.3,2.3,0.8,3.2
			c0.6,1,1.4,1.7,2.4,2.2s2.2,0.8,3.6,0.8c1.4,0,2.6-0.3,3.6-0.8s1.8-1.3,2.4-2.2c0.6-1,0.8-2,0.8-3.2S238,223,237.5,222z"/>
		<path class="st1" d="M239.3,249.4c-0.8,1.3-1.8,2.3-3.2,3.1c-1.4,0.7-2.9,1.1-4.6,1.1c-1.7,0-3.3-0.4-4.6-1.1
			c-1.4-0.7-2.4-1.8-3.2-3.1s-1.1-2.8-1.1-4.4s0.4-3.1,1.1-4.4c0.8-1.3,1.8-2.4,3.2-3.1c1.4-0.7,2.9-1.1,4.6-1.1
			c1.7,0,3.3,0.4,4.6,1.1c1.4,0.7,2.4,1.8,3.2,3.1s1.1,2.8,1.1,4.4S240,248.1,239.3,249.4z M237.5,241.7c-0.6-1-1.4-1.7-2.4-2.2
			s-2.3-0.8-3.6-0.8c-1.4,0-2.6,0.3-3.6,0.8s-1.8,1.3-2.4,2.2c-0.6,1-0.8,2-0.8,3.2s0.3,2.3,0.8,3.2c0.6,1,1.4,1.7,2.4,2.2
			s2.2,0.8,3.6,0.8c1.4,0,2.6-0.3,3.6-0.8s1.8-1.3,2.4-2.2c0.6-1,0.8-2,0.8-3.2C238.3,243.8,238,242.7,237.5,241.7z"/>
		<path class="st1" d="M240.2,270.1h-17.6v-2.3h8.1v-8.9h-8.1v-2.3h17.6v2.3h-7.6v8.9h7.6V270.1z"/>
		<path class="st1" d="M231.5,284.2l-8.9,8v-2.8l8.2-7.3h-8.2v-2.3h17.6v2.3h-8.1l8.1,7.3v2.8L231.5,284.2z"/>
		<path class="st1" d="M226.7,304.8v-7.7l-4.1-1.5v-2.4l17.2,6.5v2.6l-17.2,6.5v-2.4L226.7,304.8z M228.5,304.1l8.9-3.2l-8.9-3.2
			V304.1z"/>
		<path class="st1" d="M238.9,330.3c-1,1.4-2.4,2.3-4.1,2.8v-2.4c1.1-0.4,1.9-1.1,2.6-2.1c0.6-1,1-2.1,1-3.5c0-1.2-0.3-2.3-0.8-3.2
			c-0.6-0.9-1.3-1.7-2.4-2.2s-2.2-0.8-3.6-0.8c-1.4,0-2.7,0.3-3.7,0.8s-1.8,1.3-2.4,2.3c-0.6,1-0.8,2.1-0.8,3.3c0,1.1,0.2,2.1,0.7,3
			s1.1,1.6,2,2.2s1.9,0.9,3.1,1v-6.9h1.7v8.8h-2.1c-1.4-0.1-2.7-0.6-3.8-1.3c-1.1-0.7-2-1.7-2.7-2.9s-1-2.6-1-4.1
			c0-1.7,0.4-3.2,1.1-4.5c0.8-1.3,1.8-2.3,3.2-3s2.9-1.1,4.6-1.1s3.3,0.4,4.6,1.1c1.4,0.7,2.4,1.7,3.2,3s1.1,2.8,1.1,4.5
			C240.4,327.2,239.9,328.9,238.9,330.3z"/>
		<path class="st1" d="M238.4,338.8h-6v6.7h-1.7v-6.7h-6.1v7.4h-1.8v-9.7h17.6v9.7h-1.8v-7.4H238.4z"/>
		<path class="st1" d="M238.4,351.4h-6v6.7h-1.7v-6.7h-6.1v7.4h-1.8v-9.7h17.6v9.7h-1.8v-7.4H238.4z"/>
		<path class="st1" d="M240.2,372.5h-1.8v-5h-15.7v-2.3h15.7v-5h1.8V372.5z"/>
		<path class="st1" d="M238.9,394c-1,1.4-2.4,2.3-4.1,2.8v-2.4c1.1-0.4,1.9-1.1,2.6-2.1c0.6-1,1-2.1,1-3.5c0-1.2-0.3-2.3-0.8-3.2
			c-0.6-0.9-1.3-1.7-2.4-2.2s-2.2-0.8-3.6-0.8c-1.4,0-2.7,0.3-3.7,0.8s-1.8,1.3-2.4,2.3c-0.6,1-0.8,2.1-0.8,3.3c0,1.1,0.2,2.1,0.7,3
			s1.1,1.6,2,2.2s1.9,0.9,3.1,1v-6.9h1.7v8.8h-2.1c-1.4-0.1-2.7-0.6-3.8-1.3c-1.1-0.7-2-1.7-2.7-2.9s-1-2.6-1-4.1
			c0-1.7,0.4-3.2,1.1-4.5c0.8-1.3,1.8-2.3,3.2-3s2.9-1.1,4.6-1.1s3.3,0.4,4.6,1.1c1.4,0.7,2.4,1.7,3.2,3s1.1,2.8,1.1,4.5
			C240.4,390.9,239.9,392.6,238.9,394z"/>
		<path class="st1" d="M226.7,410.6v-7.7l-4.1-1.5V399l17.2,6.5v2.6l-17.2,6.5V412L226.7,410.6z M228.5,409.9l8.9-3.2l-8.9-3.2
			V409.9z"/>
		<path class="st1" d="M222.6,430.4v-2.3l13.9-9.1h-13.9v-2.3h17.6v2.3l-13.9,9.1h13.9v2.3H222.6z"/>
		<path class="st1" d="M226.8,447.8c-1.3-0.7-2.3-1.8-3.1-3.2c-0.7-1.4-1.1-3.1-1.1-5V434h17.6v5.6c0,1.9-0.4,3.6-1.1,5
			c-0.7,1.4-1.7,2.4-3,3.2c-1.3,0.7-2.9,1.1-4.7,1.1C229.7,448.8,228.1,448.5,226.8,447.8z M226.5,444.7c1.2,1.2,2.8,1.8,5,1.8
			c2.1,0,3.8-0.6,5-1.8c1.2-1.2,1.8-3,1.8-5.3v-3.1h-13.5v3.1C224.7,441.7,225.3,443.5,226.5,444.7z"/>
		<path class="st1" d="M240.2,465.4h-17.6v-2.3h8.1v-8.9h-8.1v-2.3h17.6v2.3h-7.6v8.9h7.6V465.4z"/>
		<path class="st1" d="M226.7,479.3v-7.7l-4.1-1.5v-2.4l17.2,6.5v2.6l-17.2,6.5v-2.4L226.7,479.3z M228.5,478.7l8.9-3.2l-8.9-3.2
			V478.7z"/>
		<path class="st1" d="M222.6,494.8l7.2-4.6v-2.5h-7.2v-2.3h17.6v5.8c0,2-0.5,3.5-1.4,4.5c-1,1-2.2,1.5-3.8,1.5
			c-1.4,0-2.6-0.4-3.5-1.2c-0.9-0.8-1.4-2-1.6-3.5l-7.2,4.8v-2.5H222.6z M231.5,487.8v3.3c0,2.6,1.1,3.9,3.4,3.9
			c2.3,0,3.4-1.3,3.4-3.9v-3.3H231.5z"/>
		<path class="st1" d="M240.2,501.2l-15,5.4l15,5.4v2.5l-17.6-6.5v-2.9l17.6-6.4V501.2z"/>
		<path class="st1" d="M238.4,525.1h-6v6.7h-1.7v-6.7h-6.1v7.4h-1.8v-9.7h17.6v9.7h-1.8v-7.4H238.4z"/>
		<path class="st1" d="M231.5,539.8l-8.9,8V545l8.2-7.3h-8.2v-2.3h17.6v2.3h-8.1l8.1,7.3v2.8L231.5,539.8z"/>
		<path class="st1" d="M231.5,560.6l-8.9,8v-2.8l8.2-7.3h-8.2v-2.3h17.6v2.3h-8.1l8.1,7.3v2.8L231.5,560.6z"/>
		<path class="st1" d="M240.2,573h-10.5c-1.7,0-3,0.4-3.8,1.1c-0.8,0.8-1.2,1.8-1.2,3.2c0,1.3,0.4,2.4,1.2,3.1
			c0.8,0.7,2.1,1.1,3.8,1.1h10.5v2.3h-10.5c-2.4,0-4.2-0.6-5.4-1.8s-1.8-2.8-1.8-4.8s0.6-3.6,1.8-4.7c1.2-1.2,3-1.8,5.4-1.8h10.5
			V573z"/>
		<path class="st1" d="M222.6,601v-2.3l13.9-9.1h-13.9v-2.3h17.6v2.3l-13.9,9.1h13.9v2.3H222.6z"/>
		<path class="st1" d="M226.7,614.9v-7.7l-4.1-1.5v-2.4l17.2,6.5v2.6l-17.2,6.5v-2.4L226.7,614.9z M228.5,614.3l8.9-3.2l-8.9-3.2
			V614.3z"/>
		<path class="st1" d="M224.4,623.4v6.2h-1.8v-8.5h17.6v2.3H224.4z"/>
	</g>
	<g>
		<polygon class="st0" points="49.9,90.2 49.9,103.7 184.8,103.7 184.8,144.2 36.5,144.2 36.5,130.7 171.3,130.7 171.3,117.2 
			36.5,117.2 36.5,76.7 184.8,76.7 184.8,90.2 		"/>
		<path class="st0" d="M36.5,157.6V225H50v-27h121.4v27h13.5v-67.4H36.5z M171.3,184.6H49.9v-13.5h121.4V184.6z"/>
		<path class="st0" d="M36.5,238.5V306H50v-27h134.9v-40.5H36.5z M171.3,265.5H49.9V252h121.4V265.5z"/>
		<rect x="117.4" y="292.5" class="st0" width="67.4" height="13.5"/>
		<rect x="117.4" y="279" class="st0" width="13.5" height="13.5"/>
		<polygon class="st0" points="49.9,373.4 171.3,373.4 171.3,359.9 117.4,359.9 117.4,346.4 184.8,346.4 184.8,386.9 36.5,386.9 
			36.5,319.4 184.8,319.4 184.8,332.9 49.9,332.9 		"/>
		<polygon class="st0" points="49.9,454.3 171.3,454.3 171.3,440.8 117.4,440.8 117.4,427.3 184.8,427.3 184.8,467.8 36.5,467.8 
			36.5,400.4 184.8,400.4 184.8,413.8 49.9,413.8 		"/>
		<polygon class="st0" points="49.9,494.8 49.9,508.2 184.8,508.2 184.8,521.7 49.9,521.7 49.9,535.2 184.8,535.2 184.8,548.7 
			36.5,548.7 36.5,481.3 184.8,481.3 184.8,494.8 		"/>
		<rect x="144.3" y="562.2" class="st0" width="40.5" height="13.5"/>
		<rect x="117.4" y="575.6" class="st0" width="27" height="13.5"/>
		<polygon class="st0" points="117.4,589.1 117.4,602.6 49.9,602.6 49.9,629.6 36.5,629.6 36.5,562.2 49.9,562.2 49.9,589.1 		"/>
		<rect x="117.4" y="602.6" class="st0" width="27" height="13.5"/>
		<rect x="144.3" y="616.1" class="st0" width="40.5" height="13.5"/>
	</g>
	<rect x="9.5" y="49.8" class="st1" width="241.5" height="13.5"/>
	<rect x="9.5" y="643.1" class="st1" width="254.9" height="13.5"/>
	<rect x="198.3" y="63.3" class="st1" width="13.5" height="579.8"/>
	<rect x="251" y="49.8" class="st1" width="13.5" height="604.3"/>
	<rect x="49.9" y="252" class="st1" width="121.4" height="13.5"/>
	<rect x="49.9" y="332.9" class="st1" width="134.8" height="13.5"/>
	<rect x="49.9" y="359.9" class="st1" width="121.4" height="13.5"/>
	<rect x="49.9" y="346.4" class="st1" width="67.4" height="13.5"/>
	<rect x="49.9" y="413.8" class="st1" width="134.8" height="13.5"/>
	<rect x="49.9" y="440.8" class="st1" width="121.4" height="13.5"/>
	<rect x="49.9" y="427.3" class="st1" width="67.4" height="13.5"/>
	<rect x="49.9" y="494.7" class="st1" width="134.8" height="13.5"/>
	<rect x="49.9" y="521.7" class="st1" width="134.8" height="13.5"/>
	<rect x="49.9" y="575.6" class="st1" width="67.4" height="13.5"/>
	<rect x="49.9" y="562.2" class="st1" width="94.4" height="13.5"/>
	<rect x="49.9" y="616.1" class="st1" width="94.4" height="13.5"/>
	<rect x="49.9" y="602.6" class="st1" width="67.4" height="13.5"/>
	<rect x="117.4" y="589.1" class="st1" width="67.4" height="13.5"/>
	<rect x="144.3" y="575.7" class="st1" width="40.5" height="13.5"/>
	<rect x="144.3" y="602.6" class="st1" width="40.5" height="13.5"/>
	<rect x="49.9" y="171.1" class="st1" width="121.4" height="13.5"/>
	<rect x="49.9" y="90.2" class="st1" width="134.8" height="13.5"/>
	<rect x="36.5" y="117.2" class="st1" width="134.8" height="13.5"/>
	<rect x="9.5" y="63.3" class="st1" width="13.5" height="579.8"/>
	<path class="st1" d="M251,9.3H23c-7.5,0-13.5,6-13.5,13.5v13.5h254.9V22.8C264.5,15.3,258.4,9.3,251,9.3z"/>
	<path class="st0" d="M9.5,670.1v13.5c0,7.5,6,13.5,13.5,13.5h52.7c0,7.5,6,13.5,13.5,13.5h95.5c7.5,0,13.5-6,13.5-13.5H251
		c7.5,0,13.5-6,13.5-13.5v-13.5H9.5z"/>
</g>
</svg>
