<?xml version="1.0" encoding="utf-8"?>
<!-- Generator: Adobe Illustrator 27.3.1, SVG Export Plug-In . SVG Version: 6.00 Build 0)  -->
<svg version="1.1" id="Layer_1" xmlns="http://www.w3.org/2000/svg" xmlns:xlink="http://www.w3.org/1999/xlink" x="0px" y="0px"
	 viewBox="0 0 216 216" style="enable-background:new 0 0 216 216;" xml:space="preserve">
<style type="text/css">
	.st0{fill:#48C5E1;}
	.st1{fill:#0F172A;}
</style>
<path class="st0" d="M169.8,207.7H46.2c-21,0-37.9-17-37.9-37.9V46.2c0-21,17-37.9,37.9-37.9h123.6c21,0,37.9,17,37.9,37.9v123.6
	C207.7,190.7,190.7,207.7,169.8,207.7z"/>
<path class="st1" d="M121.1,149.2c0,9.7-0.1,19.3,0.1,29c0,2.8-0.9,3.8-3.7,3.7c-7-0.2-14-0.3-21,0c-3.6,0.1-4-1.4-4-4.4
	c0.1-18.7-0.1-37.3,0.2-56c0.1-4.7-1.4-6.1-6-5.8c-5,0.4-10,0-15,0.1c-2.3,0.1-3.3-0.6-3.2-3.1c0.1-6.8,0.2-13.7,0-20.5
	c-0.1-2.8,1.1-3.3,3.6-3.3c5.5,0.1,11-0.2,16.5,0.1c3.4,0.2,4.2-1.1,4.1-4.3c-0.2-7.2-0.1-14.3,0.2-21.5
	c0.6-15.2,10.6-27.3,26.8-29.1c8.6-1,17.2,1.2,25.9,0.9c2.3-0.1,2.1,1.6,2.1,3.1c0,5.2-0.2,10.3,0.1,15.5c0.1,3.1-1.2,3.5-3.8,3.5
	c-5.7,0.1-11.5-1-16.8,2.6c-3.4,2.3-5.9,4.6-5.8,9c0.1,5.7,0.1,11.3-0.1,17c-0.1,2.8,1.2,3.3,3.6,3.2c6.2-0.1,12.3,0,18.5,0
	c2.3,0,3.3,0.2,2.7,3.3c-1.5,6.8-2.3,13.8-3.2,20.7c-0.3,2.6-1.7,2.8-3.7,2.8c-4.7-0.1-9.3,0.2-14-0.1c-3.1-0.2-4,0.8-4,3.9
	C121.2,129.6,121.1,139.4,121.1,149.2z"/>
</svg>
