<?xml version="1.0" encoding="utf-8"?>
<!-- Generator: Adobe Illustrator 27.3.1, SVG Export Plug-In . SVG Version: 6.00 Build 0)  -->
<svg version="1.1" id="Layer_1" xmlns="http://www.w3.org/2000/svg" xmlns:xlink="http://www.w3.org/1999/xlink" x="0px" y="0px"
	 viewBox="0 0 216 216" style="enable-background:new 0 0 216 216;" xml:space="preserve">
<style type="text/css">
	.st0{fill:#48C5E1;}
	.st1{fill:#0F172A;}
</style>
<path class="st0" d="M169.8,207.7H46.2c-21,0-37.9-17-37.9-37.9V46.2c0-21,17-37.9,37.9-37.9h123.6c21,0,37.9,17,37.9,37.9v123.6
	C207.7,190.7,190.7,207.7,169.8,207.7z"/>
<g>
	<path class="st1" d="M104.7,176.6c-10.8,0-21.7-0.1-32.5,0c-7.7,0.1-13.9-3.4-19.6-7.9c-7.3-5.8-12.3-13.4-14.3-22.6
		c-0.5-2.5-0.2-5.3-0.2-7.9c0-22.7-0.6-45.3,0.2-67.9c0.4-11.4,8.8-23.3,21.9-28.7c6.1-2.5,12.2-3.3,18.7-3.2c20,0.1,40-0.3,60,0.1
		c21.8,0.5,37.5,15.3,38,37.4c0.4,20.8,0.6,41.7-0.1,62.5c-0.7,19.4-8.6,28.8-24.6,35.9c-4.1,1.8-9.1,2.6-14.1,2.5
		c-11.2-0.2-22.3-0.1-33.5-0.1C104.7,176.7,104.7,176.7,104.7,176.6z M106.4,164.6c0,0.1,0,0.2,0,0.2c10.3,0,20.7-0.3,31,0.1
		c16.6,0.5,27.4-11.4,27.5-27.9c0.2-19.8,0.4-39.6-0.1-59.4c-0.4-17.3-10.5-26.7-27.1-27.1c-20.3-0.5-40.6,0-60.9-0.1
		c-14.2-0.1-27.2,10.8-26.9,27c0.5,21.1-0.1,42.3,0.2,63.4c0.1,10.9,9.4,23.2,22.3,23.7C83.8,164.9,95.1,164.6,106.4,164.6z"/>
	<path class="st1" d="M107.6,70.5c20.8-1.1,37.4,16.9,37.5,37.1c0.1,20.6-17,38.3-39.5,38.1c-17.4-0.2-36.6-18-35.9-38.3
		C70.4,86.5,86.2,70.5,107.6,70.5z M107.6,83.5C93,81.6,81.8,96.4,82,107.6c0.2,12,10,24.6,23.7,25.1c15.8,0.6,25.7-11.8,26.4-23.5
		C133,95.1,121.5,82.3,107.6,83.5z"/>
	<path class="st1" d="M151.9,70.5c0,4.8-3,7.8-8.2,8c-3.3,0.2-7-4.3-6.9-8.2c0.1-4.6,2.7-6.9,7.7-6.9
		C150.1,63.4,151.9,65.2,151.9,70.5z"/>
</g>
</svg>
