<?xml version="1.0" encoding="utf-8"?>
<!-- Generator: Adobe Illustrator 27.3.1, SVG Export Plug-In . SVG Version: 6.00 Build 0)  -->
<svg version="1.1" id="Layer_1" xmlns="http://www.w3.org/2000/svg" xmlns:xlink="http://www.w3.org/1999/xlink" x="0px" y="0px"
	 viewBox="0 0 216 216" style="enable-background:new 0 0 216 216;" xml:space="preserve">
<style type="text/css">
	.st0{fill:#48C5E1;}
	.st1{fill:#0F172A;}
</style>
<path class="st0" d="M169.8,207.7H46.2c-21,0-37.9-17-37.9-37.9V46.2c0-21,17-37.9,37.9-37.9h123.6c21,0,37.9,17,37.9,37.9v123.6
	C207.7,190.7,190.7,207.7,169.8,207.7z"/>
<path class="st1" d="M175,79.3c-4,1.1-8,2.1-12,3.2c-1.1,0.3-1.3-0.3-1.5-1.1c-1.9-6.5-4.6-12.7-8.7-18.2
	c-6.5-8.8-15.1-14.4-25.6-17.1c-12.8-3.3-25.5-3.3-38.2,0.6C75.5,51,66.4,60.1,60.8,73c-3.6,8.4-5.3,17.3-6,26.4
	c-0.9,11.5-0.2,23,2.8,34.2c2.7,10.4,7.4,19.7,15.6,26.9c6.4,5.6,14,8.9,22.3,10.4c11,2.1,22,2,32.7-1.2c10-3,18-8.8,23.3-17.9
	c5.3-9.1,4.6-21.5-1.6-29c-2-2.5-4.4-4.5-7.3-6.2c-0.8,5.3-2,10.4-4.4,15.1c-5.1,10.3-13.6,16-24.9,17.2c-9.1,1-17.6-0.6-24.9-6.4
	c-13.6-10.8-12.1-31.6,2.8-40.5c6.4-3.8,13.4-5.4,20.7-5.5c5.7,0,11.4,0.3,17.3,0.5c-1-5.5-2.9-10.7-8.2-14
	c-6.8-4.2-18-3.7-24.4,1.1c-1.7,1.2-3.1,2.8-4.9,4.4c-3.3-2.2-6.9-4.7-10.7-7.3c1.9-2.9,4.2-5.4,6.8-7.5c11.7-9.5,31.9-9.6,43.4-0.3
	c6.9,5.6,10.1,13.3,11.6,21.8c0.3,1.7,0.5,3.4,0.6,5.1c0,1,0.5,1.4,1.3,1.7c8.2,3.8,15,9.2,19.4,17.3c3.9,7.2,5.3,15,4.5,23.2
	c-1.5,14.6-9.5,25.2-21.2,33.3c-9,6.3-19.3,9-30.1,9.9c-9.3,0.8-18.5,0.3-27.5-2c-9.7-2.4-18.4-6.6-25.9-13.4
	c-9.6-8.7-15.4-19.6-18.8-31.9c-2.4-8.4-3.5-17-3.8-25.7c-0.5-14.4,1.1-28.4,6.1-42c3.1-8.5,7.7-16.2,14.1-22.6
	c8.5-8.6,18.9-13.8,30.8-16.2c13.9-2.8,27.7-2.4,41.3,1.8c15.6,4.8,27.1,14.6,35,28.8C171.3,67.8,173.4,73.4,175,79.3z M129.6,111.6
	c-5.1-1.4-14.2-1.9-19.5-1.4c-4.5,0.5-8.9,1.3-12.7,3.9c-6.9,4.8-6.4,14.4,0.9,18.5c4.9,2.8,10.2,3.1,15.7,2.1c3.1-0.6,6-1.7,8.3-4
	C127.8,125.5,128.8,118.6,129.6,111.6z"/>
</svg>
