<?xml version="1.0" encoding="utf-8"?>
<!-- Generator: Adobe Illustrator 27.3.1, SVG Export Plug-In . SVG Version: 6.00 Build 0)  -->
<svg version="1.1" id="Layer_1" xmlns="http://www.w3.org/2000/svg" xmlns:xlink="http://www.w3.org/1999/xlink" x="0px" y="0px"
	 viewBox="0 0 216 216" style="enable-background:new 0 0 216 216;" xml:space="preserve">
<style type="text/css">
	.st0{fill:#48C5E1;}
	.st1{fill:#0F172A;}
</style>
<path class="st0" d="M169.8,207.7H46.2c-21,0-37.9-17-37.9-37.9V46.2c0-21,17-37.9,37.9-37.9h123.6c21,0,37.9,17,37.9,37.9v123.6
	C207.7,190.7,190.7,207.7,169.8,207.7z"/>
<path class="st1" d="M98.1,123.6c-3.3,3.8-6.4,7.5-9.6,11.1c-12.6,14.7-25.2,29.4-37.9,44c-0.4,0.4-1,0.8-1.5,0.8
	c-3.6,0.1-7.2,0-11.2,0c1.9-2.3,3.6-4.3,5.4-6.3c12.9-15,25.8-30.1,38.7-45.1c3.2-3.7,6.3-7.4,9.5-11c0.9-1,1.1-1.7,0.2-3
	C74.2,88.9,56.7,63.4,39.2,37.9c-0.3-0.4-0.5-0.8-0.9-1.5c0.7,0,1.2-0.1,1.8-0.1c12.6,0,25.2,0,37.8,0c1.1,0,1.8,0.3,2.5,1.3
	c11.4,16.7,22.9,33.4,34.4,50c0.3,0.4,0.6,0.8,1,1.4c1.6-1.9,3.2-3.7,4.8-5.5c13.2-15.4,26.4-30.7,39.7-46c0.5-0.6,1.6-1.1,2.4-1.1
	c3.4-0.1,6.7-0.1,10.6-0.1c-17.5,20.4-34.7,40.4-52,60.6c18.9,27.5,37.8,55,56.9,82.6c-0.6,0.1-1,0.1-1.4,0.1c-12.8,0-25.7,0-38.5,0
	c-1,0-1.6-0.4-2.2-1.2c-12.2-17.7-24.3-35.4-36.5-53.1C99,124.8,98.6,124.3,98.1,123.6z M56.1,45.8c0.5,0.7,0.7,1.1,0.9,1.5
	c5.8,8.4,11.6,16.9,17.4,25.3c22.1,32.1,44.3,64.3,66.4,96.5c0.6,0.9,1.2,1.3,2.3,1.3c5.2-0.1,10.4,0,15.5,0c0.4,0,0.8-0.1,1.3-0.1
	c-0.3-0.5-0.6-0.9-0.8-1.3c-27.4-39.8-54.7-79.5-82-119.3c-1.9-2.8-3.8-4.1-7.3-3.8C65.5,46.1,60.9,45.8,56.1,45.8z"/>
</svg>
