<?xml version="1.0" encoding="utf-8"?>
<!-- Generator: Adobe Illustrator 27.3.1, SVG Export Plug-In . SVG Version: 6.00 Build 0)  -->
<svg version="1.1" id="Layer_1" xmlns="http://www.w3.org/2000/svg" xmlns:xlink="http://www.w3.org/1999/xlink" x="0px" y="0px"
	 viewBox="0 0 216 216" style="enable-background:new 0 0 216 216;" xml:space="preserve">
<style type="text/css">
	.st0{fill:#48C5E1;}
	.st1{fill:#0F172A;}
</style>
<path class="st0" d="M169.8,207.7H46.2c-21,0-37.9-17-37.9-37.9V46.2c0-21,17-37.9,37.9-37.9h123.6c21,0,37.9,17,37.9,37.9v123.6
	C207.7,190.7,190.7,207.7,169.8,207.7z"/>
<path class="st1" d="M174.8,85.6c2.7,12.8,1.7,25.9,1.1,38.9c-0.3,7.5-0.7,15.2-4.9,22.1c-2.3,3.8-5.7,5.5-9.6,6.4
	c-15.7,3.8-31.7,3.1-47.7,3.3c-9.4,0.1-18.9,0.4-28.3,0.1c-11.2-0.4-22.9,0.6-33.8-4.1c-6.4-2.8-9.2-7.8-10.6-14.1
	c-2.5-11.2-1.1-22.5-1.4-33.8c-0.2-8.6-0.6-17.3,1.4-25.8c2.8-12,7.5-15,18-16.4c24.5-3.3,49.2-3.7,73.9-1.8
	c9.9,0.8,19.9,0.4,29.6,3.4c6.9,2.2,9.6,7,11.2,12.8C174.6,79.4,176,82.3,174.8,85.6z M94.4,88.1c0,13.5,0,26.7,0,40.2
	c11.1-6,21.2-12.9,32.2-18.4c2-1,2.5-2.5-0.4-3.8c-3-1.4-5.7-3.6-8.7-5.1C109.8,97,102.7,91.7,94.4,88.1z"/>
</svg>
